<?xml version="1.0" standalone="no"?><!DOCTYPE svg PUBLIC "-//W3C//DTD SVG 1.1//EN" "http://www.w3.org/Graphics/SVG/1.1/DTD/svg11.dtd"><svg t="1605931076932" class="icon" viewBox="0 0 1024 1024" version="1.1" xmlns="http://www.w3.org/2000/svg" p-id="1205" xmlns:xlink="http://www.w3.org/1999/xlink" width="200" height="200"><defs><style type="text/css"></style></defs><path d="M916.352 983.04H111.104c-39.232 0-71.104-31.808-71.104-71.04V175.104c0-39.232 31.872-71.104 71.04-71.104h805.312c39.168 0 71.04 31.872 71.04 71.04V912c0 39.232-31.872 71.04-71.04 71.04zM111.104 151.488a23.68 23.68 0 0 0-23.68 23.68V912c0 13.056 10.624 23.68 23.68 23.68h805.248a23.68 23.68 0 0 0 23.68-23.68V175.104a23.68 23.68 0 0 0-23.68-23.68H111.104z" p-id="1206" fill="#2c2c2c"></path><path d="M63.744 372.8h883.008v47.36H63.744v-47.36zM224 537.024h100.352V637.44H224V536.96z m239.552 0H563.84V637.44H463.552V536.96z m239.68 0h100.288V637.44h-100.288V536.96zM224 710.656h100.352v100.288H224v-100.288z m239.552 0H563.84v100.288H463.552v-100.288z m239.68 0h100.288v100.288h-100.288v-100.288zM308.096 214.528a23.68 23.68 0 0 1-23.68-23.68V64.64a23.68 23.68 0 0 1 47.36 0v126.272a23.68 23.68 0 0 1-23.68 23.68z m411.328 0a23.68 23.68 0 0 1-23.68-23.68V64.64a23.68 23.68 0 0 1 47.36 0v126.272a23.68 23.68 0 0 1-23.68 23.68z" p-id="1207" fill="#2c2c2c"></path></svg>