<?xml version="1.0" standalone="no"?><!DOCTYPE svg PUBLIC "-//W3C//DTD SVG 1.1//EN" "http://www.w3.org/Graphics/SVG/1.1/DTD/svg11.dtd"><svg t="1607910226348" class="icon" viewBox="0 0 1024 1024" version="1.1" xmlns="http://www.w3.org/2000/svg" p-id="4405" xmlns:xlink="http://www.w3.org/1999/xlink" width="200" height="200"><defs><style type="text/css"></style></defs><path d="M896 85.333333H213.333333a42.666667 42.666667 0 0 0-42.666666 42.666667v170.666667H85.333333v85.333333h85.333334v85.333333H85.333333v85.333334h85.333334v85.333333H85.333333v85.333333h85.333334v170.666667a42.666667 42.666667 0 0 0 42.666666 42.666667h682.666667a42.666667 42.666667 0 0 0 42.666667-42.666667V128a42.666667 42.666667 0 0 0-42.666667-42.666667z m-42.666667 768H256V170.666667h597.333333v682.666666z" fill="#2c2c2c" p-id="4406"></path><path d="M554.666667 554.666667c115.541333 0 128 119.338667 128 170.666666h85.333333c0-105.258667-36.906667-182.997333-100.096-223.786666 22.186667-26.026667 36.096-59.392 36.096-96.213334C704 322.986667 637.013333 256 554.666667 256S405.333333 322.986667 405.333333 405.333333c0 36.821333 13.909333 70.186667 36.096 96.213334C378.24 542.336 341.333333 620.074667 341.333333 725.333333h85.333334c0-51.328 12.458667-170.666667 128-170.666666z m-64-149.333334c0-35.285333 28.714667-64 64-64s64 28.714667 64 64S589.952 469.333333 554.666667 469.333333s-64-28.714667-64-64z" fill="#2c2c2c" p-id="4407"></path></svg>