<?xml version="1.0" standalone="no"?><!DOCTYPE svg PUBLIC "-//W3C//DTD SVG 1.1//EN" "http://www.w3.org/Graphics/SVG/1.1/DTD/svg11.dtd"><svg t="1621910460278" class="icon" viewBox="0 0 1024 1024" version="1.1" xmlns="http://www.w3.org/2000/svg" p-id="5622" xmlns:xlink="http://www.w3.org/1999/xlink" width="32" height="32"><defs><style type="text/css"></style></defs><path d="M854.826667 629.12a365.44 365.44 0 0 0-139.093334-182.4l-26.453333-192H746.666667a42.666667 42.666667 0 0 0 42.666666-42.666667v-85.333333a42.666667 42.666667 0 0 0-42.666666-42.666667H277.333333a42.666667 42.666667 0 0 0-42.666666 42.666667v85.333333a42.666667 42.666667 0 0 0 42.666666 42.666667h55.68L306.346667 448a362.666667 362.666667 0 0 0-137.173334 180.906667 42.666667 42.666667 0 0 0 5.76 38.826666 42.666667 42.666667 0 0 0 34.56 17.92H490.666667v183.04l13.013333 64a8.533333 8.533333 0 0 0 16.64 0l13.013333-64v-182.826666h281.173334a42.666667 42.666667 0 0 0 34.56-17.92 42.666667 42.666667 0 0 0 5.76-38.826667z m-40.32 14.08H209.493333a322.56 322.56 0 0 1 125.44-162.773333 29.226667 29.226667 0 0 0 12.8-21.333334l29.44-213.333333a29.226667 29.226667 0 0 0-7.04-23.68 29.653333 29.653333 0 0 0-22.613333-10.24H277.333333v-85.333333h469.333334v85.333333h-72.106667a29.653333 29.653333 0 0 0-22.4 10.24 29.013333 29.013333 0 0 0-7.04 23.68l29.226667 213.333333a29.653333 29.653333 0 0 0 13.013333 21.333334 323.413333 323.413333 0 0 1 128 163.84l21.333333-6.826667z" p-id="5623" fill="#ffffff"></path></svg>