<?xml version="1.0" standalone="no"?><!DOCTYPE svg PUBLIC "-//W3C//DTD SVG 1.1//EN" "http://www.w3.org/Graphics/SVG/1.1/DTD/svg11.dtd"><svg t="1609226218460" class="icon" viewBox="0 0 1024 1024" version="1.1" xmlns="http://www.w3.org/2000/svg" p-id="5790" xmlns:xlink="http://www.w3.org/1999/xlink" width="32" height="32"><defs><style type="text/css"></style></defs><path d="M816 105.6c-9.6-6.4-22.4-6.4-32 0 0 0-57.6 28.8-144 28.8-41.6 0-80-16-118.4-28.8C480 86.4 438.4 67.2 384 67.2c-102.4 0-172.8 35.2-172.8 35.2C198.4 108.8 192 121.6 192 131.2l0 800c0 19.2 12.8 32 32 32s32-12.8 32-32L256 537.6c22.4-9.6 67.2-22.4 128-22.4 41.6 0 76.8 16 115.2 28.8 41.6 16 86.4 35.2 140.8 35.2 102.4 0 172.8-35.2 172.8-35.2 9.6-6.4 19.2-16 19.2-28.8l0-384C832 121.6 825.6 112 816 105.6z" p-id="5791" fill="#ffffff"></path></svg>
