<?xml version="1.0" standalone="no"?><!DOCTYPE svg PUBLIC "-//W3C//DTD SVG 1.1//EN" "http://www.w3.org/Graphics/SVG/1.1/DTD/svg11.dtd"><svg t="1609226190748" class="icon" viewBox="0 0 1024 1024" version="1.1" xmlns="http://www.w3.org/2000/svg" p-id="5549" xmlns:xlink="http://www.w3.org/1999/xlink" width="32" height="32"><defs><style type="text/css"></style></defs><path d="M224 960c-19.2 0-32-12.8-32-32L192 512c0 0 0 0 0 0L192 128c0-12.8 6.4-22.4 19.2-28.8C211.2 99.2 281.6 64 384 64c54.4 0 96 16 137.6 35.2C560 112 598.4 128 640 128c89.6 0 144-28.8 144-28.8 9.6-6.4 22.4-3.2 32 0S832 118.4 832 128l0 384c0 12.8-6.4 22.4-19.2 28.8-3.2 0-70.4 35.2-172.8 35.2-54.4 0-99.2-16-140.8-35.2C460.8 528 425.6 512 384 512c-60.8 0-105.6 12.8-128 22.4L256 928C256 947.2 243.2 960 224 960zM384 448c54.4 0 99.2 16 140.8 35.2 38.4 16 73.6 28.8 115.2 28.8 57.6 0 105.6-12.8 128-22.4L768 172.8C736 182.4 694.4 192 640 192c-54.4 0-99.2-16-140.8-35.2C460.8 140.8 425.6 128 384 128c-57.6 0-105.6 12.8-128 22.4l0 316.8C288 457.6 329.6 448 384 448z" p-id="5550" fill="#ffffff"></path></svg>
