<svg id="图层_1" data-name="图层 1" xmlns="http://www.w3.org/2000/svg" xmlns:xlink="http://www.w3.org/1999/xlink" viewBox="0 0 424.93 467.16"><defs><style>.cls-1{fill:none;}.cls-2{clip-path:url(#clip-path);}.cls-3{fill:#e94929;}</style><clipPath id="clip-path" transform="translate(-4.15 -7.77)"><rect class="cls-1" x="4.22" y="7.47" width="426.47" height="468.03"/></clipPath></defs><title>红旗-选中</title><g class="cls-2"><path class="cls-3" d="M96.17,308.84C125.33,262.19,213.3,221.26,306.61,265s122.46,14.59,122.46,14.59L399.91,34.64c-14.59,29.15-61.24,32.07-137,0s-110.81-32.07-140-17.5S49.65,65.6,49.65,65.6Z" transform="translate(-4.15 -7.77)"/></g><g class="cls-2"><line class="cls-1" x1="23.9" y1="47.27" x2="99.7" y2="443.83"/></g><g class="cls-2"><path class="cls-3" d="M106.77,474.93c11.66-2.92,20.41-14.58,17.5-26.24L48.46,52.14c-2.92-11.67-14.58-20.4-26.25-17.5S1.81,49.22,4.71,60.88L80.52,457.43c2.91,8.75,11.66,17.5,23.33,17.5Z" transform="translate(-4.15 -7.77)"/></g></svg>
