<?xml version="1.0" standalone="no"?><!DOCTYPE svg PUBLIC "-//W3C//DTD SVG 1.1//EN" "http://www.w3.org/Graphics/SVG/1.1/DTD/svg11.dtd"><svg t="1618824556532" class="icon" viewBox="0 0 1024 1024" version="1.1" xmlns="http://www.w3.org/2000/svg" p-id="62849" xmlns:xlink="http://www.w3.org/1999/xlink" width="128" height="128"><defs><style type="text/css"></style></defs><path d="M866.133 216.235H729.685v-48.811A38.4 38.4 0 0 0 690.432 128H331.691a38.4 38.4 0 0 0-39.254 39.424v46.933H156.032C141.099 216.235 128 229.42 128 244.437s13.099 28.16 28.032 28.16h711.936c14.933 0 28.032-13.141 28.032-28.16-1.877-15.018-14.933-28.16-29.867-28.16zM757.76 332.715H264.363c-7.467 0-14.934 1.834-18.688 7.466a24.15 24.15 0 0 0-7.467 18.774v454.4c0.043 45.098 37.419 82.645 82.219 82.645h383.061c44.843 0 82.219-37.547 82.219-82.603v-454.4c0-15.061-13.099-26.325-28.032-26.325zM440.021 770.133c0 15.019-13.098 28.16-28.032 28.16a28.8 28.8 0 0 1-28.032-28.16V473.472c0-15.019 13.099-28.16 28.032-28.16 14.934 0 28.032 13.141 28.032 28.16v296.661z m198.059 0c0 15.019-13.056 28.16-28.032 28.16a28.8 28.8 0 0 1-28.032-28.16V473.472c0-15.019 13.099-28.16 28.032-28.16s28.032 13.141 28.032 28.16v296.661z" fill="#768099" p-id="62850"></path></svg>