<?xml version="1.0" standalone="no"?><!DOCTYPE svg PUBLIC "-//W3C//DTD SVG 1.1//EN" "http://www.w3.org/Graphics/SVG/1.1/DTD/svg11.dtd"><svg t="1618823062817" class="icon" viewBox="0 0 1448 1024" version="1.1" xmlns="http://www.w3.org/2000/svg" p-id="5736" data-spm-anchor-id="a313x.7781069.0.i2" width="90.5" height="64" xmlns:xlink="http://www.w3.org/1999/xlink"><defs><style type="text/css"></style></defs><path d="M903.762137 356.929279L829.108013 282.275155l37.327062-37.327062c12.385016-12.385016 32.338653-12.385016 44.723668 0l29.758442 29.758442c12.385016 12.385016 12.385016 32.338653 0 44.723668l-37.155048 37.499076z m-216.909794 216.73778L612.370233 499.012935l202.804637-201.25651 74.654124 74.654124-202.976651 201.25651z m-134.515034 61.237023l45.411725-121.269948 73.966068 73.966068-119.377793 47.30388z m335.083487 25.458088c10.492861 0 18.921552 8.428691 18.921552 18.921552s-8.428691 18.921552-18.921552 18.921553H553.197379c-10.492861 0-18.921552-8.428691-18.921552-18.921553s8.428691-18.921552 18.921552-18.921552h334.223417z" p-id="5737" fill="#768099"></path></svg>