<?xml version="1.0" standalone="no"?><!DOCTYPE svg PUBLIC "-//W3C//DTD SVG 1.1//EN" "http://www.w3.org/Graphics/SVG/1.1/DTD/svg11.dtd"><svg t="1619055034239" class="icon" viewBox="0 0 1024 1024" version="1.1" xmlns="http://www.w3.org/2000/svg" p-id="12781" xmlns:xlink="http://www.w3.org/1999/xlink" width="128" height="128"><defs><style type="text/css"></style></defs><path d="M576.404 103.82l262.5 151.248c39.658 22.85 64.097 65.138 64.097 110.908v302.048c0 45.77-24.439 88.057-64.097 110.908l-262.5 151.248c-39.554 22.79-88.252 22.79-127.806 0l-262.5-151.248C146.438 756.082 122 713.794 122 668.024V365.976c0-45.77 24.439-88.057 64.097-110.908l262.5-151.248c39.555-22.79 88.253-22.79 127.807 0zM512.5 385c-72.996 0-132.17 59.098-132.17 132s59.174 132 132.17 132c72.995 0 132.17-59.098 132.17-132S585.495 385 512.5 385z" fill="#333333" p-id="12782"></path></svg>