<?xml version="1.0" standalone="no"?><!DOCTYPE svg PUBLIC "-//W3C//DTD SVG 1.1//EN" "http://www.w3.org/Graphics/SVG/1.1/DTD/svg11.dtd"><svg t="1618824309120" class="icon" viewBox="0 0 1024 1024" version="1.1" xmlns="http://www.w3.org/2000/svg" p-id="47780" xmlns:xlink="http://www.w3.org/1999/xlink" width="128" height="128"><defs><style type="text/css"></style></defs><path d="M881.322667 888.021333H142.677333a35.968 35.968 0 1 0 0 71.978667h738.645334a35.968 35.968 0 1 0 0-72.021333zM658.688 184.32l181.12 181.077333-298.112 298.112a33.109333 33.109333 0 0 1-10.197333 6.826667l-235.52 99.669333a31.573333 31.573333 0 0 1-35.2-6.912 31.658667 31.658667 0 0 1-6.784-35.114666l99.84-235.392a32 32 0 0 1 6.784-10.197334l298.069333-298.069333z m30.165333-30.208l68.949334-68.906667a72.234667 72.234667 0 0 1 101.973333-0.213333l79.36 79.317333a72.234667 72.234667 0 0 1-0.256 101.973334L869.973333 335.232l-181.12-181.12z" fill="#768099" p-id="47781"></path></svg>