<svg id="图层_1" data-name="图层 1" xmlns="http://www.w3.org/2000/svg" viewBox="0 0 379.33 340.95"><defs><style>.cls-1{fill:#747d95;}</style></defs><title>信任</title><path class="cls-1" d="M465,87.75c5.53,20.6,2,48,2,65.86V307.18a30.6,30.6,0,0,0-1.33,3.13c-4.1,13.21-16.86,24.13-31,24.14-21.65,0-43.32.44-65,.05-8.37-.14-14.33,1.49-20.43,8.36-14.25,16.05-29.95,30.81-45.19,46-15.92,15.85-36.76,15.65-52.69-.35q-18.85-19-37.67-38c-4-4-8.19-7.9-11.61-12.37a8.13,8.13,0,0,0-7.43-3.55c-22.66.12-45.32.3-68-.09-6.17-.1-12.85-.89-18.35-3.42-14-6.46-19.5-18.53-19.48-33.69q.09-57.28.06-114.57,0-28.65,0-57.29c0-9,.53-18.19-.05-27.1C88.36,90.5,89.75,82.82,94,76c.5-.79,1-1.57,1.59-2.32,7.51-10,19-14.07,31.15-14,49.32.16,98.64.07,148,.07,51.48,0,103,.11,154.46-.07C450.74,59.57,460.65,71.57,465,87.75ZM345.73,128.17c-39.38,23.11-60.47,60.59-79.93,100.06l-19.1-36.95-39.29,24C232.76,227,251.1,245.68,267.63,265c10.71-14.23,20.77-28.73,32-42.26,13.91-16.74,28.28-33.27,49.25-42.93C340.94,163.17,345.16,145.73,345.73,128.17Z" transform="translate(-88.78 -59.65)"/></svg>