<?xml version="1.0" standalone="no"?><!DOCTYPE svg PUBLIC "-//W3C//DTD SVG 1.1//EN" "http://www.w3.org/Graphics/SVG/1.1/DTD/svg11.dtd"><svg t="1618824680067" class="icon" viewBox="0 0 1024 1024" version="1.1" xmlns="http://www.w3.org/2000/svg" p-id="70626" xmlns:xlink="http://www.w3.org/1999/xlink" width="128" height="128"><defs><style type="text/css"></style></defs><path d="M180.224 446.464c-12.288 0-10.24-12.288-7.168-15.36l296.96-232.448c3.072-2.048 8.192-3.072 12.288-2.048 4.096 1.024 7.168 4.096 7.168 8.192v118.784c0 7.168 6.144 13.312 13.312 13.312h307.2c10.24 0 18.432 8.192 18.432 18.432V430.08c0 12.288-5.12 15.36-17.408 15.36H180.224z m663.552 131.072H215.04c-10.24 0-18.432 8.192-18.432 18.432v71.68c0 10.24 8.192 18.432 18.432 18.432h307.2c7.168 0 13.312 6.144 13.312 13.312v118.784c0 3.072 3.072 7.168 7.168 8.192 4.096 1.024 9.216 1.024 12.288-2.048l296.96-232.448c2.048-2.048 4.096-14.336-8.192-14.336z m0 0" p-id="70627" fill="#768099"></path></svg>