<?xml version="1.0" standalone="no"?><!DOCTYPE svg PUBLIC "-//W3C//DTD SVG 1.1//EN" "http://www.w3.org/Graphics/SVG/1.1/DTD/svg11.dtd"><svg t="1618824591807" class="icon" viewBox="0 0 1024 1024" version="1.1" xmlns="http://www.w3.org/2000/svg" p-id="63776" xmlns:xlink="http://www.w3.org/1999/xlink" width="128" height="128"><defs><style type="text/css"></style></defs><path d="M841.142857 329.142857l-34.377143 519.314286a109.714286 109.714286 0 0 1-99.401143 101.961143L697.270857 950.857143H326.656a109.714286 109.714286 0 0 1-108.397714-92.452572L217.234286 848.457143 182.857143 329.142857h658.285714zM639.926857 457.142857L512.512 584.923429 512 584.338286l-0.512 0.585143L384 457.142857l-54.930286 55.076572L456.484571 640 329.142857 767.780571l54.930286 55.076572 127.414857-127.780572 0.512 0.585143 0.512-0.585143L640 822.857143l54.930286-55.076572L567.515429 640 694.857143 512.219429l-54.930286-55.076572zM684.324571 73.142857a14.628571 14.628571 0 0 1 13.897143 10.020572L719.213714 146.285714H899.657143c8.045714 0 14.628571 6.582857 14.628571 14.628572v95.085714h-804.571428V160.914286c0-8.045714 6.582857-14.628571 14.628571-14.628572h180.370286l21.065143-63.122285A14.628571 14.628571 0 0 1 339.675429 73.142857h344.649142z" p-id="63777" fill="#768099"></path></svg>