<svg id="图层_1" data-name="图层 1" xmlns="http://www.w3.org/2000/svg" viewBox="0 0 413 464.43"><defs><style>.cls-1{fill:#6f7580;}</style></defs><title>红旗-默认</title><path class="cls-1" d="M393.71,37.69C379.5,66.1,334,69,260.14,37.69s-108-31.26-136.41-17.06C97.29,33.85,58.27,63.34,53,67.39l-.67-3.52C49.45,52.5,38.08,44,26.71,46.81S6.83,61,9.66,72.38L83.54,458.87c2.84,8.53,11.37,17.06,22.74,17.06h2.84c11.37-2.85,19.9-14.22,17.06-25.57l-28-146.28c29-45.11,114.17-84.25,204.54-41.88,90.94,42.62,119.35,14.21,119.35,14.21ZM302.77,231.08c-90.94-38-183.49-2.43-211.92,38.15L57.21,96.38S98.16,69,123.73,51.22c33-22.88,62.57-12.82,136.41,15.21,70.6,26.79,64.53,18.91,112.43,17.69L393.79,253.3S393.71,269.12,302.77,231.08Z" transform="translate(-9.11 -11.5)"/></svg>
