<?xml version="1.0" standalone="no"?><!DOCTYPE svg PUBLIC "-//W3C//DTD SVG 1.1//EN" "http://www.w3.org/Graphics/SVG/1.1/DTD/svg11.dtd"><svg t="1618824942757" class="icon" viewBox="0 0 1024 1024" version="1.1" xmlns="http://www.w3.org/2000/svg" p-id="87561" xmlns:xlink="http://www.w3.org/1999/xlink" width="128" height="128"><defs><style type="text/css"></style></defs><path d="M302.24917 248.089562l-266.226063 463.66702L30.120358 963.647395a15.178499 15.178499 0 0 0 7.709714 13.371535c4.818571 2.770678 10.721321 2.710446 15.47966-0.120464l223.702171-131.306067 271.646955-462.703306-246.409688-134.799531z m355.971952-52.401962c16.202446-26.983999 20.478928-59.268427 12.046428-89.444729A114.862692 114.862692 0 0 0 613.287945 35.89173L573.354035 13.846767a115.525246 115.525246 0 0 0-153.110101 41.138552l-87.938926 140.642049L573.414268 337.353595l84.927318-141.665995z m275.622276 631.232835H454.335325a54.57032 54.57032 0 0 0-49.631284 54.148695c0 28.068178 21.502874 51.49848 49.631284 54.208927h479.447841a54.931712 54.931712 0 0 0 51.799641-25.538428 54.088462 54.088462 0 0 0 0-57.340998 54.931712 54.931712 0 0 0-51.799641-25.478196z m0-186.237779H561.970161a54.57032 54.57032 0 0 0-49.631284 54.148695c0 28.068178 21.502874 51.49848 49.631284 54.208926h371.873237a54.931712 54.931712 0 0 0 51.799641-25.538427 54.088462 54.088462 0 0 0 0-57.340998 54.931712 54.931712 0 0 0-51.799641-25.478196z m0-199.970707h-267.189777a54.630552 54.630552 0 0 0-54.811248 54.389623c0 30.055838 24.574713 54.389623 54.811248 54.389623h267.189777c30.236535 0 54.811248-24.333785 54.811248-54.389623a54.630552 54.630552 0 0 0-54.811248-54.389623z" fill="#768099" p-id="87562"></path></svg>