<!DOCTYPE svg PUBLIC "-//W3C//DTD SVG 20010904//EN" "http://www.w3.org/TR/2001/REC-SVG-20010904/DTD/svg10.dtd">
<svg version="1.0" xmlns="http://www.w3.org/2000/svg" width="22px" height="26px" viewBox="0 0 220 260" preserveAspectRatio="xMidYMid meet">
<g id="layer101" fill="#008cff" stroke="none">
 <path d="M0 130 l0 -130 105 0 105 0 0 65 c0 40 -4 65 -11 65 -6 0 -3 7 5 16 21 20 21 78 0 98 -18 19 -75 21 -92 4 -9 -9 -12 -9 -12 0 0 8 -18 12 -50 12 l-50 0 0 -130z m185 90 c4 -6 -5 -10 -19 -10 -21 0 -26 -5 -26 -26 0 -14 -4 -23 -10 -19 -11 7 -14 48 -3 58 10 11 51 8 58 -3z m-95 -28 c0 -35 30 -64 65 -64 23 0 25 -4 25 -49 l0 -49 -75 0 -75 0 0 95 0 95 30 0 c26 0 30 -4 30 -28z"/>
 <path d="M40 105 c0 -10 11 -15 35 -15 24 0 35 5 35 15 0 10 -11 15 -35 15 -24 0 -35 -5 -35 -15z"/>
 <path d="M40 65 c0 -12 14 -15 65 -15 51 0 65 3 65 15 0 12 -14 15 -65 15 -51 0 -65 -3 -65 -15z"/>
 </g>

</svg>