<?xml version="1.0" standalone="no"?><!DOCTYPE svg PUBLIC "-//W3C//DTD SVG 1.1//EN" "http://www.w3.org/Graphics/SVG/1.1/DTD/svg11.dtd"><svg t="1617880125280" class="icon" viewBox="0 0 1024 1024" version="1.1" xmlns="http://www.w3.org/2000/svg" p-id="23498" xmlns:xlink="http://www.w3.org/1999/xlink" width="32" height="32"><defs><style type="text/css"></style></defs><path d="M836.2 957.3H189.8c-50.7 0-92-41.3-92-92V158.2c0-50.7 41.3-92 92-92h646.5c50.7 0 92 41.3 92 92v707.1c-0.1 50.7-41.3 92-92.1 92zM189.8 130.2c-15.4 0-28 12.6-28 28v707.1c0 15.4 12.6 28 28 28h646.5c15.4 0 28-12.6 28-28V158.2c0-15.4-12.6-28-28-28H189.8z" p-id="23499" fill="#2c2c2c"></path><path d="M781 251.7H388c-17.7 0-32 14.3-32 32s14.3 32 32 32h393c17.7 0 32-14.3 32-32s-14.3-32-32-32z m-501 0c-17.7 0-32 14.3-32 32s14.3 32 32 32 32-14.3 32-32-14.3-32-32-32zM781 476.7H388c-17.7 0-32 14.3-32 32s14.3 32 32 32h393c17.7 0 32-14.3 32-32s-14.3-32-32-32z m-501 0c-17.7 0-32 14.3-32 32s14.3 32 32 32 32-14.3 32-32-14.3-32-32-32zM781 701.7H388c-17.7 0-32 14.3-32 32s14.3 32 32 32h393c17.7 0 32-14.3 32-32s-14.3-32-32-32z m-501 0c-17.7 0-32 14.3-32 32s14.3 32 32 32 32-14.3 32-32-14.3-32-32-32z" p-id="23500" fill="#2c2c2c"></path></svg>