<?xml version="1.0" standalone="no"?><!DOCTYPE svg PUBLIC "-//W3C//DTD SVG 1.1//EN" "http://www.w3.org/Graphics/SVG/1.1/DTD/svg11.dtd"><svg t="1607910559830" class="icon" viewBox="0 0 1024 1024" version="1.1" xmlns="http://www.w3.org/2000/svg" p-id="18607" xmlns:xlink="http://www.w3.org/1999/xlink" width="200" height="200"><defs><style type="text/css"></style></defs><path d="M969.728 444.928c-28.16-12.8-60.416-8.192-83.456 12.288l-92.16 80.384V481.28c0-59.392-48.64-108.032-108.032-108.032H116.736C57.344 373.248 8.704 421.888 8.704 481.28v434.176c0 59.392 48.64 108.032 108.032 108.032h568.832c59.392 0 108.032-48.64 108.032-108.032v-56.32l92.16 80.384c23.552 20.48 55.296 25.088 83.456 12.288 28.16-12.8 45.568-39.936 45.568-71.168v-365.056c0.512-30.208-16.896-57.856-45.056-70.656z m-15.36 436.224c0 10.24-7.168 14.336-10.24 15.872-3.072 1.536-10.752 4.096-18.432-2.56L783.36 770.048c-9.216-7.68-21.504-9.728-32.768-4.608-10.752 5.12-17.92 15.872-17.92 27.648v122.88c0 26.112-20.992 47.104-47.104 47.104H116.736c-26.112 0-47.104-20.992-47.104-47.104V481.792c0-26.112 20.992-47.104 47.104-47.104h568.832c26.112 0 47.104 20.992 47.104 47.104v122.88c0 11.776 7.168 22.528 17.92 27.648s23.552 3.072 32.768-4.608l142.336-124.416c7.68-6.656 15.36-4.096 18.432-2.56 3.072 1.536 10.24 5.632 10.24 15.872v364.544zM187.904 372.224C273.408 372.224 343.04 303.104 343.04 217.6S273.408 62.464 187.904 62.464 32.768 132.096 32.768 217.6 102.4 372.224 187.904 372.224z m0-248.832c52.224 0 94.208 42.496 94.208 94.208s-42.496 94.208-94.208 94.208c-52.224 0-94.208-42.496-94.208-94.208s42.496-94.208 94.208-94.208zM528.896 372.224c102.912 0 186.368-83.456 186.368-186.368S631.808 0 528.896 0 343.04 83.456 343.04 186.368s83.456 185.856 185.856 185.856z m0-311.296c69.12 0 125.44 56.32 125.44 125.44s-56.32 125.44-125.44 125.44-125.44-56.32-125.44-125.44 56.32-125.44 125.44-125.44z" p-id="18608" fill="#2c2c2c"></path><path d="M184.32 547.84m-40.96 0a40.96 40.96 0 1 0 81.92 0 40.96 40.96 0 1 0-81.92 0Z" p-id="18609" fill="#2c2c2c"></path></svg>