<?xml version="1.0" standalone="no"?><!DOCTYPE svg PUBLIC "-//W3C//DTD SVG 1.1//EN" "http://www.w3.org/Graphics/SVG/1.1/DTD/svg11.dtd"><svg class="icon" width="200px" height="200.00px" viewBox="0 0 1024 1024" version="1.1" xmlns="http://www.w3.org/2000/svg"><path d="M833.9 159.7H189.7c-69.2 0-125.5 56.3-125.5 125.5v454.7c0 69.2 56.3 125.5 125.5 125.5h644.2c69.2 0 125.5-56.3 125.5-125.5V285.2c0-69.2-56.3-125.5-125.5-125.5z m0 50.2c12.8 0 24.9 3.2 35.5 8.9l-352.5 307L162.7 215c8.4-3.2 17.5-5 27-5h644.2z m75.3 530c0 41.5-33.8 75.3-75.3 75.3H189.7c-41.5 0-75.3-33.8-75.3-75.3V285.2c0-13.5 3.6-26.2 9.9-37.2l376 329.9c4.7 4.1 10.7 6.2 16.6 6.2 5.9 0 11.8-2.1 16.5-6.2l369.9-322.1c3.8 9 5.9 18.9 5.9 29.3v454.8z" fill="#D6473B" /><path d="M125.5 838.3c-6.2 0-12.4-2.3-17.3-6.9-10.1-9.5-10.5-25.4-0.9-35.5l241.2-254.1c9.5-10.1 25.4-10.5 35.5-0.9 10.1 9.5 10.5 25.4 0.9 35.5L143.7 830.5c-4.9 5.2-11.5 7.8-18.2 7.8zM893.9 838.3c-6.6 0-13.3-2.6-18.2-7.8L634.5 576.4c-9.5-10.1-9.1-25.9 0.9-35.5 10-9.5 25.9-9.1 35.5 0.9l241.2 254.1c9.5 10.1 9.1 25.9-0.9 35.5-4.9 4.6-11.1 6.9-17.3 6.9z" fill="#D6473B" opacity=".5" /></svg>